<?xml version="1.0" encoding="UTF-8"?>
<svg version="1.1" xmlns="http://www.w3.org/2000/svg" width="512" height="512">
    <path
        d="M0 0 C4.05535185 2.91021003 7.53079547 6.42876004 11 10 C11.48726562 9.443125 11.97453125 8.88625 12.4765625 8.3125 C22.63661251 -2.62340837 35.54219854 -9.70690497 50.6484375 -10.43359375 C52.5571496 -10.4569188 54.46625354 -10.45781954 56.375 -10.4375 C57.38014648 -10.42992676 58.38529297 -10.42235352 59.42089844 -10.41455078 C73.95624632 -10.09305536 87.25983117 -5.01930116 98.07421875 4.921875 C101.81113838 8.95441302 104.91370847 13.46085315 108 18 C108.53367187 17.61328125 109.06734375 17.2265625 109.6171875 16.828125 C115.16204694 12.9524793 120.58102921 10.13623348 127 8 C127.67160156 7.773125 128.34320313 7.54625 129.03515625 7.3125 C144.18471804 3.10915338 161.49517886 5.93278676 175.14453125 13.19921875 C179.97704949 16.24681233 184.00011993 19.94287657 188 24 C188.58652344 24.57621094 189.17304688 25.15242188 189.77734375 25.74609375 C200.13281757 36.73396292 201.31927254 51.09267532 201.1953125 65.4453125 C201.19106766 67.32185013 201.19106766 67.32185013 201.18673706 69.23629761 C201.17750168 72.52751564 201.15960118 75.81852961 201.1373291 79.10968018 C201.11669861 82.48194917 201.10769895 85.8542483 201.09765625 89.2265625 C201.07570393 95.8177867 201.04230798 102.4088767 201 109 C201.60255615 109.12719925 202.2051123 109.2543985 202.82592773 109.38545227 C203.62458252 109.55771835 204.4232373 109.72998444 205.24609375 109.9074707 C206.0342749 110.07591995 206.82245605 110.2443692 207.63452148 110.41792297 C211.25568737 111.30898897 214.59942824 112.67496802 218 114.1875 C218.69351562 114.49502197 219.38703125 114.80254395 220.1015625 115.11938477 C225.73834724 117.7101682 230.4182425 120.79621445 235 125 C235.67160156 125.5465625 236.34320313 126.093125 237.03515625 126.65625 C247.42308653 135.78321765 252.9046484 150.49964195 254 164 C257.78108503 225.53180826 234.7800734 288.48942301 196.0625 335.5 C179.32672181 355.84174735 174.92624878 374.53618227 174.82421875 400.44921875 C174.80101837 402.78581628 174.77690095 405.12240485 174.75195312 407.45898438 C174.71699785 411.06768833 174.6875427 414.67606001 174.67407227 418.28491211 C174.56629517 442.5480225 172.84027665 464.41380845 156.0078125 483.2265625 C138.44948682 500.38734118 110.35011981 502.31996748 87.18066406 502.2746582 C85.6738256 502.27902138 84.16698934 502.28420977 82.66015625 502.29014587 C78.61854179 502.3033761 74.57702174 502.30413255 70.5353899 502.30158257 C67.13653579 502.30050169 63.73769992 502.30542453 60.33884978 502.310188 C52.3062892 502.32122842 44.27377541 502.32175188 36.24121094 502.31567383 C28.01148479 502.3096414 19.78192993 502.32193914 11.55223298 502.3432439 C4.43487293 502.36097751 -2.68243319 502.36684282 -9.79981446 502.36360615 C-14.02788353 502.36181144 -18.25583046 502.36424459 -22.48387909 502.37832069 C-84.16564711 502.56595642 -84.16564711 502.56595642 -106.25 482.5625 C-126.68201212 460.9789252 -124.32926195 428.80840216 -124.45629883 401.36425781 C-124.47809174 397.45877727 -124.51751299 393.55375611 -124.55859375 389.6484375 C-124.55870956 388.47203705 -124.55882538 387.2956366 -124.5589447 386.08358765 C-124.78007229 367.32038143 -131.18728801 353.17060375 -142.69628906 338.6484375 C-174.61707629 298.28717245 -178.49117877 258.65184153 -178.43590808 208.81076646 C-178.4327834 204.4515098 -178.43894344 200.09228454 -178.44494683 195.73303241 C-178.45890061 185.44919139 -178.45750301 175.16543364 -178.44604492 164.8815918 C-178.434526 154.31008153 -178.4487235 143.73882385 -178.4754414 133.16734678 C-178.49763695 124.03975332 -178.50422845 114.91223897 -178.49836498 105.78462046 C-178.49500909 100.35465617 -178.49732124 94.92485438 -178.51461601 89.4949131 C-178.53014883 84.39822768 -178.52605966 79.30191694 -178.50731087 74.20524597 C-178.50364494 72.34495805 -178.50667461 70.48464189 -178.51719666 68.62438011 C-178.60601445 51.61411592 -175.8769476 37.18258124 -163.875 24.3125 C-151.05216892 12.19610202 -136.20689458 8.36617922 -119.04785156 8.52709961 C-106.655784 8.92224936 -96.8073897 13.15816773 -86 19 C-85.75636719 18.27683594 -85.51273437 17.55367187 -85.26171875 16.80859375 C-82.96737973 11.70138088 -78.85665617 7.98499747 -75 4 C-74.16275391 3.12408203 -74.16275391 3.12408203 -73.30859375 2.23046875 C-53.80148711 -16.29883806 -21.09931318 -13.41735567 0 0 Z M-65.3125 22.4375 C-72.43492635 31.28246968 -72.28627455 41.20323387 -71.59448242 51.99511719 C-71.53931961 52.95090668 -71.4841568 53.90669617 -71.42732239 54.89144897 C-71.24429782 58.02709373 -71.05021082 61.16193785 -70.85546875 64.296875 C-70.72381446 66.49486381 -70.59266332 68.69288281 -70.46199036 70.89093018 C-70.18682579 75.4907493 -69.90630141 80.09020067 -69.62182617 84.68945312 C-69.25944079 90.55358133 -68.90924966 96.41835917 -68.56298351 102.28345871 C-68.29384161 106.82220205 -68.01871491 111.36056762 -67.74178505 115.89884186 C-67.61054106 118.05945913 -67.48097859 120.22017929 -67.35320091 122.38100433 C-66.92889196 147.47154171 -66.92889196 147.47154171 -54.8125 168.3125 C-50.2932584 172.10624462 -45.61473968 174.28357699 -40 176 C-39.37738281 176.19078125 -38.75476563 176.3815625 -38.11328125 176.578125 C-27.52503128 178.69186067 -16.6742768 177.06215614 -7.46484375 171.45703125 C-0.43590825 166.32907664 4.62611941 160.43730225 7 152 C7.90209806 138.73925693 6.58197316 125.20752177 5.79296875 111.96484375 C5.66555859 109.7887058 5.53822546 107.61256334 5.41096497 105.43641663 C5.14482798 100.9105863 4.87433296 96.38503948 4.60131836 91.85961914 C4.25311523 86.07382273 3.92129774 80.28720788 3.59330273 74.50023556 C3.33669068 70.02065754 3.06876989 65.54180743 2.79772377 61.06308174 C2.67044356 58.92917439 2.54726516 56.79501808 2.42836571 54.66062737 C2.2612607 51.68167173 2.07823824 48.70409 1.89135742 45.72631836 C1.84603882 44.85606522 1.80072021 43.98581207 1.75402832 43.08918762 C1.07168631 32.85034538 -2.65002389 25.00781171 -10.125 17.875 C-18.11285566 10.98119057 -27.50216688 8.5964332 -37.89453125 8.72265625 C-49.17570499 9.7301573 -57.75826144 14.21996244 -65.3125 22.4375 Z M25.25 24.21484375 C20.38393826 31.16418817 19.7465542 38.65753087 20.22192383 46.89746094 C20.2575795 47.54715347 20.29323517 48.19684601 20.32997131 48.8662262 C20.44850965 50.98942104 20.57730273 53.11183668 20.70703125 55.234375 C20.79370391 56.7193194 20.88001712 58.20428483 20.96598816 59.68927002 C21.14717609 62.78940424 21.3336334 65.88916632 21.52368164 68.98876953 C21.76670983 72.96163222 21.99504822 76.93518521 22.21931934 80.90914536 C22.39394102 83.97040981 22.57701081 87.03112483 22.76257896 90.09174347 C22.8502706 91.55720951 22.93515941 93.02284606 23.01719093 94.48863983 C23.13273131 96.5331037 23.25979999 98.57653476 23.38989258 100.62011719 C23.45952713 101.78258972 23.52916168 102.94506226 23.60090637 104.14276123 C23.81641291 107.19507335 23.81641291 107.19507335 26 110 C26.58394531 109.34644531 26.58394531 109.34644531 27.1796875 108.6796875 C35.06689737 100.28362538 46.1350819 93.51512362 57.890625 92.83203125 C65.82967107 92.78587401 73.36533442 93.4120246 81.2109375 94.5625 C85.2061939 95.02380796 88.98214647 95.02919421 93 95 C93.0698181 87.46286402 93.12297162 79.925762 93.15543652 72.38837528 C93.17102599 68.88762469 93.19213941 65.38709698 93.22631836 61.88647461 C93.26545205 57.85268129 93.27976462 53.81911844 93.29296875 49.78515625 C93.30845261 48.54105484 93.32393646 47.29695343 93.33988953 46.01515198 C93.34208991 34.55120354 91.39826756 27.55164264 83.38671875 19.23046875 C75.17670744 11.55793772 65.13004597 8.2826487 53.89453125 8.65234375 C41.91065539 10.09170266 32.79694789 14.88369894 25.25 24.21484375 Z M114.92449951 38.24125671 C112.70661231 41.42056718 112.48806879 42.97024387 112.45410156 46.80004883 C112.43438293 47.94085403 112.41466431 49.08165924 112.39434814 50.2570343 C112.39311951 51.47803329 112.39189087 52.69903229 112.390625 53.95703125 C112.37408875 55.21513107 112.35755249 56.4732309 112.34051514 57.76945496 C112.30021503 61.10196091 112.27686464 64.43370343 112.26177979 67.76635742 C112.24217401 71.17186968 112.20020814 74.57709957 112.16015625 77.98242188 C112.08620769 84.65487896 112.03460391 91.32722915 112 98 C120.10998814 99.04752303 128.22048827 100.09095125 136.33166695 101.12921143 C140.09832496 101.61148677 143.8647937 102.09515022 147.63085938 102.58203125 C151.26791039 103.05218047 154.90541945 103.51862416 158.54327011 103.98254395 C159.92844326 104.15984255 161.31344864 104.33845709 162.69827652 104.51843262 C164.64361157 104.77102048 166.58961791 105.01842169 168.53564453 105.265625 C169.64150909 105.40774414 170.74737366 105.54986328 171.88674927 105.69628906 C174.94699448 105.99482908 177.92746806 106.0543242 181 106 C181.10179976 98.33206581 181.17163338 90.66430729 181.21972656 82.99584961 C181.23978535 80.38966357 181.26703911 77.78352221 181.30175781 75.17749023 C181.3505263 71.42159974 181.37302717 67.6663067 181.390625 63.91015625 C181.41127014 62.75354996 181.43191528 61.59694366 181.45318604 60.4052887 C181.45593408 50.39577754 178.88727381 43.21282082 172.05859375 35.85546875 C161.9131791 26.71111968 151.25192551 25.14892299 138.15576172 25.8046875 C128.87570998 26.64546229 121.14139027 31.52786482 114.92449951 38.24125671 Z M-151.375 40.3125 C-158.58315383 50.04644593 -158.56630519 59.33070382 -158.4609375 71.02734375 C-158.45854857 72.7841427 -158.4576487 74.54094425 -158.4581604 76.29774475 C-158.45504391 79.96843615 -158.43856986 83.63873381 -158.41162109 87.30932617 C-158.37766848 91.99061899 -158.36999268 96.67147989 -158.37151146 101.35288143 C-158.37096488 104.97766668 -158.35995141 108.60235944 -158.34550858 112.22711372 C-158.3391895 113.95210637 -158.33521327 115.67710939 -158.33372116 117.40211296 C-158.30794418 131.62545742 -158.17894837 143.99280369 -148.1484375 155.0390625 C-139.98499867 162.49005576 -129.62954021 165.55830244 -118.75 165.3203125 C-106.22516661 163.86145406 -97.95988111 158.8112927 -89.8125 149.5 C-85.860426 144.04886345 -85.68372655 139.34520754 -85.75390625 132.828125 C-85.762192 131.40877655 -85.762192 131.40877655 -85.77064514 129.96075439 C-85.94470082 115.96084584 -86.91512962 101.98300396 -87.79595947 88.01361084 C-87.98613472 84.97220095 -88.16979554 81.93041257 -88.3532629 78.88859177 C-88.57535115 75.21202572 -88.80121739 71.53569451 -89.02734375 67.859375 C-89.06897078 67.17746849 -89.1105978 66.49556198 -89.15348625 65.79299164 C-89.53325974 59.60746312 -89.92714405 53.42193214 -90.44921875 47.24658203 C-90.51254395 46.48507843 -90.57586914 45.72357483 -90.64111328 44.93899536 C-91.56476649 39.94867613 -96.2035332 36.94211135 -100 34 C-115.71102068 23.47629924 -138.5944717 26.50696692 -151.375 40.3125 Z M42.78515625 119.9453125 C35.48830676 128.34387449 32.16164294 137.94362259 32 149 C32.75784194 158.823877 35.90833461 167.39162261 43.0625 174.3125 C51.84000502 181.35859109 62.36299788 183.85841266 73.21875 185.92578125 C74.46434692 186.17330643 75.70994385 186.4208316 76.99328613 186.67585754 C80.99208914 187.46875219 84.9957169 188.23535328 89 189 C90.34508578 189.25843064 91.69013792 189.5170364 93.03515625 189.77581787 C99.80270555 191.07646872 106.57267231 192.36433932 113.34375 193.64648438 C114.01271301 193.77319456 114.68167603 193.89990475 115.37091064 194.03045464 C118.82200011 194.68338911 122.27374754 195.33256814 125.7265625 195.97631836 C129.1592039 196.6166564 132.58991293 197.26656664 136.01954651 197.92281532 C137.91987676 198.28368773 139.8221665 198.63419299 141.7244873 198.98442078 C142.87179321 199.20507706 144.01909912 199.42573334 145.20117188 199.65307617 C146.20402222 199.84149582 147.20687256 200.02991547 148.2401123 200.2240448 C151.24288428 201.06828804 153.4500281 202.21413185 156 204 C157.60056359 207.20112717 157.35150546 210.51940672 157 214 C156.0625 216.4375 156.0625 216.4375 154 218 C147.1992942 219.63587325 140.81562289 218.61344814 134.05078125 217.34765625 C133.03453171 217.16867294 132.01828217 216.98968964 130.97123718 216.80528259 C127.74943138 216.23610407 124.53095096 215.6503262 121.3125 215.0625 C118.08295116 214.48084884 114.85282805 213.9028362 111.62162781 213.33042908 C109.61829135 212.97470797 107.61595608 212.61328749 105.61482239 212.24537659 C97.46607687 210.42909126 97.46607687 210.42909126 89.69140625 212.28515625 C87.43785347 214.1665627 85.19935685 216.05530552 83 218 C82.38898438 218.5053125 81.77796875 219.010625 81.1484375 219.53125 C63.66103289 235.18207787 59.49389982 262.82780318 58 285 C57.77059501 290.52618723 57.59382746 296.05473346 57.51708984 301.58520508 C57.49211426 302.60509521 57.46713867 303.62498535 57.44140625 304.67578125 C57.42795166 305.58239502 57.41449707 306.48900879 57.40063477 307.4230957 C56.91636887 310.53791991 55.82632918 312.45073141 54 315 C50.80766515 316.59616743 47.46538503 316.51466114 44 316 C41.56880377 314.12984906 40.35930827 312.71861655 39 310 C37.10056535 275.67765759 41.87705643 235.84272145 65 209 C66.010895 207.6749079 67.0146576 206.34420167 68 205 C64.63173855 203.86475131 61.25577262 202.76322998 57.86328125 201.703125 C41.75483434 196.6030854 29.238597 191.22642506 20.48046875 176.1953125 C19.99191406 175.47085938 19.50335938 174.74640625 19 174 C18.34 174 17.68 174 17 174 C15.95244255 175.14576596 14.96190283 176.3439356 14 177.5625 C3.51228168 189.8017754 -11.00233313 194.94968348 -26.70703125 196.21875 C-41.59552113 196.74191802 -56.50078308 191.86805408 -68.09375 182.5 C-72.65100953 178.10358493 -76.26633168 173.71585194 -79 168 C-79.54527344 168.37511719 -80.09054688 168.75023437 -80.65234375 169.13671875 C-97.72820473 180.72495261 -113.42574241 185.64933867 -134.19775391 182.68652344 C-142.37619386 181.10776756 -149.14801354 177.60102396 -156 173 C-156.66 172.67 -157.32 172.34 -158 172 C-158.07007255 182.49366889 -158.12309793 192.98728047 -158.15543652 203.48113728 C-158.17097162 208.35591821 -158.19198231 213.23053697 -158.22631836 218.10522461 C-158.25935229 222.82557413 -158.27694388 227.54576946 -158.28463173 232.26622581 C-158.29009746 234.05079762 -158.30076539 235.83536274 -158.31719017 237.61986732 C-158.63149418 273.24434221 -147.97965245 299.19039997 -126.40527344 327.06005859 C-113.93493344 343.21169468 -107.55028082 358.59775347 -105 379 C-19.2 379 66.6 379 155 379 C156.42613609 372.59857537 156.42613609 372.59857537 157.7890625 366.18359375 C161.37138866 350.13008539 168.60135164 337.5820337 179 325 C213.3871963 282.73787325 239.70591001 223.4738686 234.55102539 167.64111328 C233.11985526 155.16927855 229.407963 146.56346868 220 138 C208.83363429 129.48359015 195.53402749 127.31434096 181.9453125 125.64453125 C180.34323696 125.4387136 178.74128122 125.23196171 177.13943481 125.02436829 C172.71565408 124.45507902 168.2899085 123.90277067 163.86341858 123.3549881 C160.92126661 122.99023914 157.97956988 122.62199341 155.03796387 122.25286865 C141.09715166 120.50481728 127.15199916 118.79347178 113.2052002 117.09393311 C108.6906061 116.54295107 104.17639851 115.98883635 99.66218376 115.43475628 C95.29420275 114.89897455 90.92600845 114.36494931 86.55774307 113.83149147 C84.48359146 113.57801401 82.4095016 113.32403066 80.33547592 113.06952477 C77.47370029 112.71865311 74.61165128 112.37010551 71.74951172 112.0222168 C70.90205383 111.91786316 70.05459595 111.81350952 69.18145752 111.70599365 C58.88909025 110.46141395 50.43753209 112.62291591 42.78515625 119.9453125 Z M-104 398 C-106.41712768 434.19387675 -106.41712768 434.19387675 -92.99609375 467.34375 C-73.03568527 486.48288944 -39.40441772 483.31509102 -13.93353534 483.26865101 C-10.20691333 483.26349577 -6.48029989 483.26830823 -2.75367737 483.27142334 C3.49683431 483.27503536 9.74729833 483.27033688 15.99780273 483.26074219 C23.16991893 483.24985823 30.34192135 483.25339406 37.51403481 483.264395 C43.73210308 483.27354181 49.9501376 483.27471757 56.16821045 483.26951766 C59.8556901 483.26643878 63.54311672 483.26587354 67.23059273 483.27259064 C104.82560199 484.35838583 104.82560199 484.35838583 139 471 C139.9075 470.4225 140.815 469.845 141.75 469.25 C151.52155163 459.47844837 153.1097872 447.23148961 155 434 C155 422.12 155 410.24 155 398 C69.53 398 -15.94 398 -104 398 Z "
        fill="#fff" transform="translate(218,10)" />
</svg>