<?xml version="1.0" encoding="UTF-8"?>
<svg version="1.1" xmlns="http://www.w3.org/2000/svg" width="512" height="512">
    <path
        d="M0 0 C9.56964223 5.5520154 17.38713516 15.19871384 25.15869141 23.0324707 C26.26913101 24.14794153 27.37980679 25.26317731 28.49072266 26.37817383 C31.17443299 29.07274701 33.85496076 31.77044743 36.53369141 34.4699707 C38.82326758 33.32932318 41.10258713 32.17495875 43.37353516 30.99731445 C44.39576172 30.47266602 45.41798828 29.94801758 46.47119141 29.4074707 C47.49083984 28.88024414 48.51048828 28.35301758 49.56103516 27.80981445 C57.97442901 24.01770658 67.56965583 24.58743016 76.18212891 27.4855957 C79.94139512 29.05924202 83.22802757 31.10240066 86.53369141 33.4699707 C87.37931641 34.0680957 88.22494141 34.6662207 89.09619141 35.2824707 C91.15591622 37.13094169 92.84149057 38.9464745 94.62548828 41.04663086 C98.70067317 45.73661113 103.0706232 50.0803269 107.50244141 54.4309082 C109.22538964 56.13634243 110.9480367 57.84208099 112.67041016 59.5480957 C115.35282187 62.19959614 118.0374774 64.8486915 120.72753906 67.49243164 C123.34693325 70.06918341 125.95652076 72.65555465 128.56494141 75.2434082 C129.35993042 76.01977631 130.15491943 76.79614441 130.97399902 77.59603882 C145.52860276 92.0842883 145.52860276 92.0842883 145.90869141 100.7824707 C145.85609543 104.4115931 145.62006818 105.34433175 143.47119141 108.4699707 C139.93424698 110.87810308 137.80805734 111.4699707 133.53369141 111.4699707 C128.60858778 109.54418422 126.30108117 107.32284065 123.34521484 102.99389648 C118.67341315 96.41911029 113.26952304 90.76702029 107.54931641 85.0871582 C106.51997018 84.05578358 105.49106897 83.02396465 104.46258545 81.99172974 C102.32948785 79.8542586 100.19118508 77.72218342 98.04882812 75.59399414 C95.30945452 72.87186285 92.58397949 70.13627055 89.86215591 67.39660454 C87.75030133 65.27390621 85.63135063 63.15840789 83.51018524 61.04501724 C82.5017081 60.0385326 81.49543048 59.02983883 80.49146271 58.01885605 C79.09256311 56.61231602 77.682969 55.21643703 76.27294922 53.82104492 C75.47624817 53.02673065 74.67954712 52.23241638 73.85870361 51.41403198 C69.35751368 47.65035752 65.32383507 46.96206336 59.53369141 47.4699707 C56.18207895 48.85211192 56.18207895 48.85211192 53.53369141 50.4699707 C54.90279482 53.54507733 56.45416063 55.62803176 58.85009766 57.98168945 C59.86124634 58.98292847 59.86124634 58.98292847 60.89282227 60.00439453 C61.61993408 60.71490967 62.3470459 61.4254248 63.09619141 62.1574707 C63.84328369 62.89698975 64.59037598 63.63650879 65.36010742 64.3984375 C67.74656522 66.76046993 70.13931606 69.11596619 72.53369141 71.4699707 C75.68525703 74.56839873 78.83020418 77.67332353 81.97119141 80.7824707 C82.69830322 81.49298584 83.42541504 82.20350098 84.17456055 82.93554688 C85.18570923 83.93678589 85.18570923 83.93678589 86.21728516 84.95825195 C86.81081787 85.54131104 87.40435059 86.12437012 88.01586914 86.72509766 C90.58612443 89.67983701 91.46703866 91.95579241 91.97119141 95.8449707 C91.40231814 100.55849206 90.0532256 102.32485504 86.53369141 105.4699707 C81.75864674 106.83426918 78.91584261 106.67630261 74.53369141 104.4699707 C72.59228072 102.7985847 70.81553754 101.1421963 69.02832031 99.32104492 C68.50238785 98.79715683 67.97645538 98.27326874 67.43458557 97.73350525 C65.70246592 96.00438642 63.9813169 94.26477693 62.26025391 92.5246582 C61.05164098 91.31298424 59.8424334 90.10190316 58.63265991 88.89138794 C56.0979993 86.3521274 53.5683215 83.80804301 51.04248047 81.26000977 C47.82273491 78.01210346 44.59449168 74.77282045 41.3628788 71.536726 C38.26301675 68.43167468 35.16783773 65.32197106 32.07275391 62.2121582 C31.48997303 61.6274966 30.90719215 61.04283501 30.30675125 60.44045639 C24.69951504 54.80985116 19.14288405 49.17950347 13.9753418 43.13598633 C11.86321448 40.69514691 9.60684548 38.41340945 7.32666016 36.13012695 C6.41078125 35.21295898 5.49490234 34.29579102 4.55126953 33.35083008 C3.15038086 31.95574219 3.15038086 31.95574219 1.72119141 30.5324707 C0.75813228 29.56584168 -0.20475941 28.5990458 -1.16748047 27.63208008 C-2.07691406 26.72393555 -2.98634766 25.81579102 -3.92333984 24.88012695 C-4.74809814 24.05649658 -5.57285645 23.23286621 -6.42260742 22.38427734 C-8.92311418 20.04208722 -9.92199557 19.52913516 -13.34130859 19.1574707 C-16.50048915 19.22943075 -16.50048915 19.22943075 -18.84130859 21.0324707 C-20.64195964 23.44519725 -20.64195964 23.44519725 -21.27880859 26.5949707 C-19.28700217 36.09435518 -7.80030859 44.2638174 -0.94568062 51.06576347 C0.75931211 52.75777134 2.46096649 54.45307771 4.16188049 56.14918518 C7.76213967 59.73814311 11.36637866 63.32308727 14.97119141 66.9074707 C19.1769388 71.08955981 23.38100846 75.27330866 27.58091927 79.46125984 C29.25514933 81.12902378 30.93236548 82.79374415 32.60972595 84.45835876 C33.6319727 85.47697455 34.65408019 86.49573011 35.67602539 87.51464844 C36.56821274 88.40159897 37.46040009 89.2885495 38.37962341 90.20237732 C41.60026904 93.59275996 42.85169357 95.7197017 42.97119141 100.3449707 C42.86930645 104.01282905 42.60190538 105.35628075 40.65869141 108.5949707 C36.92643003 110.83432753 34.47208552 111.37027723 30.15478516 111.14575195 C24.52573933 109.69444804 20.86749616 105.2095237 17.2084198 100.91429138 C11.54254236 94.28260206 5.41278192 88.10972338 -0.71630859 81.91137695 C-1.5872113 81.0306165 -1.5872113 81.0306165 -2.47570801 80.13206291 C-5.54076043 77.03465775 -8.60971777 73.94117326 -11.68115234 70.85009766 C-14.21285415 68.30049212 -16.73573518 65.74261122 -19.25146484 63.17724609 C-22.30667332 60.06187013 -25.3763307 56.96145341 -28.45690918 53.87116814 C-29.6230133 52.69651954 -30.7839865 51.51675339 -31.9395752 50.3317585 C-33.55447223 48.67794804 -35.18730404 47.0440788 -36.82568359 45.41357422 C-37.74833008 44.48062027 -38.67097656 43.54766632 -39.62158203 42.58644104 C-43.0037354 40.07012634 -45.2891049 39.62791155 -49.46630859 39.4699707 C-51.94736053 40.37232906 -51.94736053 40.37232906 -53.46630859 42.4699707 C-54.57759026 45.87790114 -54.89682823 47.61007737 -53.27392578 50.8515625 C-51.28309337 53.73536553 -49.10909388 56.03625221 -46.60693359 58.48950195 C-46.13946716 58.95176682 -45.67200073 59.41403168 -45.19036865 59.89030457 C-43.70374007 61.35924993 -42.21059039 62.82131457 -40.71630859 64.2824707 C-39.23714209 65.73371466 -37.75958845 67.18650939 -36.28509521 68.64250183 C-34.93772157 69.97226962 -33.58546774 71.29708738 -32.23291016 72.62158203 C-30.1267978 74.78995591 -28.14496133 76.9711561 -26.17578125 79.25830078 C-22.23012932 83.80937782 -18.00458019 88.04032607 -13.72412109 92.2746582 C-12.91514374 93.07984894 -12.10616638 93.88503967 -11.27267456 94.71463013 C-8.71464983 97.26053606 -6.15338952 99.80314719 -3.59130859 102.3449707 C-0.19523598 105.71452137 3.19755869 109.087323 6.58837891 112.4621582 C7.37058807 113.23606903 8.15279724 114.00997986 8.95870972 114.80734253 C9.67680817 115.52213776 10.39490662 116.23693298 11.13476562 116.97338867 C11.7687326 117.60211884 12.40269958 118.230849 13.05587769 118.87863159 C16.02279331 122.07346515 15.86318658 125.02347022 15.82275391 129.20825195 C15.39484964 132.55631371 13.9829588 134.23064051 11.53369141 136.4699707 C7.76875271 137.72495027 5.50360523 137.99061514 1.53369141 137.4699707 C-5.8237442 132.43407072 -11.97939459 125.0856986 -18.26318359 118.77075195 C-19.38537922 117.6466863 -20.50779949 116.52284489 -21.63043213 115.3992157 C-24.5638948 112.46196449 -27.49434289 109.52172408 -30.4241333 106.58081055 C-33.40641907 103.5882666 -36.39155884 100.59857259 -39.37646484 97.60864258 C-44.62088844 92.3546894 -49.86283595 87.09827712 -55.10296631 81.84004211 C-55.88286926 81.05791855 -56.66277222 80.27579498 -57.46630859 79.4699707 C-58.15742737 78.71664963 -58.84854614 77.96332855 -59.56060791 77.18717957 C-61.48081696 75.13597927 -61.48081696 75.13597927 -64.96630859 74.9699707 C-68.45936281 75.2121597 -68.45936281 75.2121597 -70.90380859 77.0949707 C-72.61105189 79.40498618 -72.61105189 79.40498618 -73.15380859 82.2199707 C-71.5722847 89.69626548 -63.3420798 95.72539122 -58.02880859 100.9699707 C-57.3450415 101.64995117 -56.66127441 102.32993164 -55.95678711 103.03051758 C-53.79573805 105.17947996 -51.63146134 107.32514349 -49.46630859 109.4699707 C-46.60914843 112.30030907 -43.75547405 115.13409743 -40.90380859 117.9699707 C-40.26193604 118.60354492 -39.62006348 119.23711914 -38.95874023 119.88989258 C-35.16597569 123.66236967 -31.57503764 127.54883023 -28.09848022 131.61514282 C-25.25422637 134.84740176 -22.16694535 137.83491256 -19.09130859 140.8449707 C-17.8520444 142.05878799 -16.61495118 143.274827 -15.38037109 144.4934082 C-14.8436377 145.01854004 -14.3069043 145.54367187 -13.75390625 146.0847168 C-10.92372045 149.12955453 -11.06880946 152.23003068 -11.12646484 156.20825195 C-11.46630859 158.4699707 -11.46630859 158.4699707 -13.52880859 161.4699707 C-17.06575302 163.87810308 -19.19194266 164.4699707 -23.46630859 164.4699707 C-29.22343555 162.28453703 -32.90314251 158.43820607 -37.13037109 154.1340332 C-37.8448642 153.41766693 -38.5593573 152.70130066 -39.29550171 151.96322632 C-40.79997512 150.45205091 -42.30085665 148.93729204 -43.79833984 147.41918945 C-46.0835901 145.10279438 -48.37932577 142.79722819 -50.67724609 140.4934082 C-52.14141232 139.02007028 -53.60497452 137.54613179 -55.06787109 136.0715332 C-55.75023834 135.38491608 -56.43260559 134.69829895 -57.13565063 133.99087524 C-59.81100996 131.27541769 -62.36076835 128.60219616 -64.74121094 125.61987305 C-66.46013974 123.25611219 -66.46013974 123.25611219 -69.46630859 121.4699707 C-74.80099288 121.08532176 -74.80099288 121.08532176 -79.46630859 123.4699707 C-80.45689305 126.66185394 -80.93586536 128.2663445 -80.46630859 131.4699707 C-79.21378722 133.45303627 -79.21378722 133.45303627 -77.43701172 135.26098633 C-76.79594482 135.95506592 -76.15487793 136.64914551 -75.49438477 137.36425781 C-72.30283018 140.6779882 -69.0837346 143.95597309 -65.81005859 147.1887207 C-65.10409546 147.89089722 -64.39813232 148.59307373 -63.67077637 149.31652832 C-61.43839501 151.53681673 -59.20278748 153.75381025 -56.96630859 155.9699707 C-54.01540481 158.89406549 -51.06797656 161.82160127 -48.12255859 164.7512207 C-47.45881226 165.4066687 -46.79506592 166.0621167 -46.11120605 166.73742676 C-42.33153 170.49752024 -38.77349185 174.37563492 -35.29006958 178.41021729 C-31.94086888 182.19280044 -28.3761167 185.76406448 -24.82177734 189.3527832 C-23.60703484 190.57963333 -23.60703484 190.57963333 -22.36775208 191.83126831 C-20.66404099 193.54872487 -18.95883267 195.26469735 -17.25219727 196.97924805 C-15.52080976 198.72218572 -13.79390574 200.46958873 -12.0715332 202.22143555 C-9.56063463 204.77519202 -7.03657186 207.31526345 -4.50927734 209.8527832 C-3.75164597 210.62792267 -2.99401459 211.40306213 -2.21342468 212.20169067 C15.02366687 229.37039929 35.52109638 230.69077491 58.52001953 232.07177734 C61.1764565 232.23386583 63.83151014 232.41151909 66.48681641 232.59106445 C67.29113098 232.63492783 68.09544556 232.6787912 68.9241333 232.72398376 C74.07011802 233.08315645 77.93975962 234.08014249 82.53369141 236.4699707 C84.80411857 239.17983539 85.45204916 240.92180134 85.97119141 244.4074707 C85.41762818 248.2824133 83.9419561 250.42422418 81.53369141 253.4699707 C78.38009952 255.04676665 75.00975419 254.62713552 71.54931641 254.6105957 C70.34592621 254.60675873 70.34592621 254.60675873 69.1182251 254.60284424 C61.23943763 254.53506435 53.41345171 254.06685752 45.56396484 253.40795898 C43.27095386 253.21892061 40.97696812 253.05310941 38.68212891 252.88793945 C26.57565975 251.9423024 15.14545677 249.74631953 4.22119141 244.1574707 C2.61824219 243.35889648 2.61824219 243.35889648 0.98291016 242.54418945 C-8.69263721 237.02303058 -16.3497201 228.86868502 -24.13037109 221.03637695 C-25.33348576 219.83206694 -26.5369739 218.62812994 -27.74081421 217.42454529 C-30.25008445 214.91372006 -32.75598931 212.39960175 -35.25927734 209.8828125 C-38.44916189 206.67593071 -41.64559748 203.47567901 -44.84436989 200.27766514 C-47.32581527 197.79594632 -49.80463456 195.31161827 -52.28260422 192.82642937 C-53.45964348 191.64623497 -54.63726553 190.46662147 -55.8155098 189.28763008 C-61.37460343 183.7211458 -66.86839212 178.15054571 -71.98388672 172.16685486 C-74.27928142 169.53938493 -76.75137202 167.14627112 -79.25927734 164.7199707 C-80.31244839 163.68916666 -81.36516974 162.657903 -82.41748047 161.6262207 C-84.03883387 160.04196752 -85.66302799 158.46108454 -87.29516602 156.88793945 C-95.66034344 148.80966118 -102.43599518 141.65853962 -102.77880859 129.4074707 C-102.67495812 120.76480374 -99.94851772 113.10833181 -93.99365234 106.7746582 C-91.98559215 105.05933313 -90.01061586 104.1434638 -87.46630859 103.4699707 C-87.80404297 102.88989258 -88.14177734 102.30981445 -88.48974609 101.7121582 C-94.04763506 91.97782089 -96.50678558 82.96357962 -93.46630859 71.7824707 C-90.38595007 63.79097452 -84.04018648 58.09912053 -76.46630859 54.4699707 C-76.51271484 53.73133789 -76.55912109 52.99270508 -76.60693359 52.23168945 C-76.94806558 42.64344404 -75.40306171 34.70043852 -69.27880859 27.0949707 C-64.03525405 21.59149859 -57.35881714 17.64079852 -49.66943359 17.37231445 C-48.69490234 17.38391602 -47.72037109 17.39551758 -46.71630859 17.4074707 C-45.73146484 17.41649414 -44.74662109 17.42551758 -43.73193359 17.43481445 C-42.61044922 17.4522168 -42.61044922 17.4522168 -41.46630859 17.4699707 C-41.18787109 16.2324707 -41.18787109 16.2324707 -40.90380859 14.9699707 C-38.10693928 8.16020194 -32.88187353 3.01900662 -26.46630859 -0.5300293 C-17.94304659 -3.82012764 -8.33534821 -3.99621633 0 0 Z "
        fill="#fff" transform="translate(366.46630859375,257.530029296875)" />
    <path
        d="M0 0 C3.84628227 0.04952295 5.01697647 0.21806579 8.3125 2.4375 C10.64595144 5.97531348 11.25 8.1387346 11.25 12.375 C9.11119065 17.83742677 5.64472829 21.44091869 1.625 25.5625 C0.35733303 26.89910798 -0.90828938 28.23765798 -2.171875 29.578125 C-2.78611328 30.22845703 -3.40035156 30.87878906 -4.03320312 31.54882812 C-10.07687954 37.97753967 -15.0964494 44.43786397 -19.1875 52.25 C-19.6832251 53.16736938 -19.6832251 53.16736938 -20.18896484 54.10327148 C-25.34666091 64.55510346 -25.10042561 76.66143212 -25.06567383 88.0703125 C-25.06247275 90.26871596 -25.08622624 92.46582014 -25.11132812 94.6640625 C-25.11359827 96.08593584 -25.11430594 97.50781272 -25.11328125 98.9296875 C-25.11626221 100.19280762 -25.11924316 101.45592773 -25.12231445 102.75732422 C-24.5461706 108.35555348 -22.9923717 112.1326283 -18.9375 116.1875 C-15.85176311 118.30516257 -13.2918663 119.28329505 -9.75 120.375 C-9.80220703 118.42207031 -9.80220703 118.42207031 -9.85546875 116.4296875 C-9.88361901 114.70313796 -9.91091784 112.97657439 -9.9375 111.25 C-9.96263672 110.3940625 -9.98777344 109.538125 -10.01367188 108.65625 C-10.07352588 103.46890289 -9.72651299 99.8293621 -6.75 95.375 C-2.73141405 92.6959427 0.52641721 92.67889306 5.25 93.375 C8.12029869 95.16893668 9.74131638 96.35763276 11.25 99.375 C11.54189503 105.23100554 11.5645639 111.08882711 11.60009766 116.95141602 C11.61635685 118.90108424 11.64322508 120.85070098 11.68212891 122.80004883 C11.99531209 138.6103528 9.83920821 153.00665584 6.25 168.375 C5.949342 169.68043072 5.64923075 170.98598746 5.34960938 172.29165649 C3.7103484 179.42886901 2.05060463 186.56126868 0.38085938 193.69140625 C0.21192673 194.41321485 0.04299408 195.13502344 -0.13105774 195.87870502 C-1.00206783 199.59496968 -1.87950224 203.30957243 -2.7668457 207.02197266 C-3.64332092 210.69138435 -4.50296883 214.36439047 -5.351717 218.04030991 C-5.67365218 219.42038221 -6.00173228 220.79903744 -6.33634758 222.17609024 C-8.98812809 231.92468789 -8.98812809 231.92468789 -6.75 241.375 C-3.23175489 243.72049674 -1.89224306 243.95491403 2.25 243.375 C6.64591618 239.79337761 8.07541366 236.86499206 9.31469727 231.3918457 C9.47481293 230.70801819 9.63492859 230.02419067 9.79989624 229.31964111 C10.32280664 227.06695476 10.81964473 224.80936472 11.31640625 222.55078125 C11.67924526 220.96400942 12.04368945 219.37760387 12.40965271 217.79154968 C13.36954606 213.61153092 14.30738775 209.42686178 15.24072266 205.24084473 C16.18033512 201.0448853 17.14091044 196.85374078 18.09960938 192.66210938 C19.35045731 187.1812359 20.59688284 181.69942711 21.82697964 176.21385479 C22.14965979 174.77579234 22.47380325 173.33805738 22.79947758 171.90067005 C23.65599314 168.10460895 24.47327555 164.30438416 25.24362183 160.48983765 C25.41139853 159.68118098 25.57917524 158.87252432 25.75203609 158.03936291 C26.07097408 156.49813842 26.3798432 154.95478022 26.67643833 153.40910053 C27.93677716 147.39960163 29.97048181 142.8946788 35.25 139.375 C42.16262409 138.70603638 42.16262409 138.70603638 45.72525024 140.89779663 C48.95138611 144.06317753 49.7659876 147.20663119 50.77880859 151.47119141 C50.98308661 152.26617853 51.18736462 153.06116566 51.39783287 153.8802433 C52.03367153 156.37428177 52.64317556 158.87376258 53.25 161.375 C53.63025559 162.89358963 54.01167129 164.41188932 54.39434814 165.92987061 C55.35161467 169.75380683 56.28290847 173.58357379 57.20567703 177.41596603 C57.80802626 179.91460204 58.41534422 182.41198548 59.02401733 184.90908813 C60.75027171 191.99230297 62.47237131 199.07649209 64.18066406 206.1640625 C65.23515194 210.53751134 66.29885904 214.90862882 67.36860275 219.2783699 C67.77156199 220.93211513 68.17104204 222.58671226 68.5669136 224.24216843 C69.11744318 226.54306093 69.67965937 228.8408009 70.24462891 231.13818359 C70.40365189 231.81553055 70.56267487 232.4928775 70.72651672 233.19075012 C71.63885563 236.84189331 72.57099452 239.67428884 75.25 242.375 C78.67890226 243.24781149 81.14259577 243.70422829 84.5625 242.6875 C86.7592909 240.97888485 87.46786595 240.07691764 88.25 237.375 C87.75393194 232.13502406 86.82750916 227.20120558 85.53173828 222.09204102 C85.36084686 221.41282593 85.18995544 220.73361084 85.0138855 220.03381348 C84.4541048 217.81427958 83.88741397 215.59657992 83.3203125 213.37890625 C82.92503928 211.82014562 82.53009665 210.26130113 82.13546753 208.70237732 C81.30966924 205.44459975 80.48055439 202.18769047 79.64892578 198.93139648 C78.58874862 194.77949315 77.53584168 190.62578894 76.48530769 186.4714365 C75.67111999 183.25440007 74.85356425 180.03822702 74.03496933 176.82230949 C73.64577786 175.29209272 73.25748644 173.76164671 72.87015152 172.23095894 C70.45665012 162.60435867 70.45665012 162.60435867 67.51489258 153.12963867 C66.10818488 148.95404368 65.76604327 145.48348616 65.8125 141.125 C65.79251953 140.444375 65.77253906 139.76375 65.75195312 139.0625 C65.75545194 135.45171914 66.16700416 133.50247616 68.15234375 130.453125 C71.02457459 127.60763747 71.86888509 127.41311149 76 127 C79.31751516 127.03021416 81.10116622 127.60215097 83.6875 129.6875 C87.77411051 133.97345736 87.54319987 138.12751255 87.96875 143.78125 C88.16931261 146.48646303 88.16931261 146.48646303 89.25 149.375 C93.3698185 151.15217661 95.36311028 151.70347767 99.625 150.125 C102.32493765 148.63857381 102.32493765 148.63857381 103.25 146.375 C103.3679635 144.54802657 103.42894963 142.71721706 103.4609375 140.88671875 C103.48929688 139.78779297 103.51765625 138.68886719 103.546875 137.55664062 C103.59869282 135.23908874 103.64304179 132.92135706 103.6796875 130.60351562 C103.710625 129.50072266 103.7415625 128.39792969 103.7734375 127.26171875 C103.79325684 126.25326904 103.81307617 125.24481934 103.83349609 124.20581055 C104.31692705 120.9201236 105.29234027 119.04047338 107.25 116.375 C111.30403188 113.67231208 114.49387141 113.7386166 119.25 114.375 C122.58901922 115.97192223 123.85501034 117.27800599 125.109375 120.76171875 C125.60892195 122.50758435 126.06687394 124.26604655 126.4765625 126.03515625 C127.3259791 128.60485597 128.15235371 129.70212708 130.25 131.375 C132.61462492 132.38135246 132.61462492 132.38135246 135.25 132.375 C138.96261227 130.62386475 138.96261227 130.62386475 141.25 127.375 C141.35623928 125.55976724 141.39880981 123.74066054 141.41113281 121.92236328 C141.42074036 120.78002228 141.4303479 119.63768127 141.44024658 118.46072388 C141.44449646 117.21813812 141.44874634 115.97555237 141.453125 114.6953125 C141.45882507 113.41703583 141.46452515 112.13875916 141.47039795 110.82174683 C141.48091668 108.10642093 141.48675135 105.39112466 141.49023438 102.67578125 C141.49567357 99.2286398 141.51959766 95.78190253 141.54820633 92.33488655 C141.57156221 89.01753813 141.5732998 85.70023868 141.578125 82.3828125 C141.5966452 80.54929733 141.5966452 80.54929733 141.61553955 78.67874146 C141.59092645 69.0514672 140.25034309 60.29606873 136.0625 51.5625 C134.23561767 47.66185934 133.57969848 44.7319599 134.25 40.375 C136.07136418 37.33939304 137.56945611 35.76899909 140.625 34 C143.94064735 33.21056015 145.97642391 33.42020698 149.25 34.375 C153.60917371 37.26517317 155.38250092 40.01634784 157.375 44.8125 C157.85195313 45.92496094 158.32890625 47.03742187 158.8203125 48.18359375 C162.72650975 58.91554827 163.71572726 69.41917964 163.68359375 80.765625 C163.68817066 82.205223 163.69348062 83.64481884 163.69947815 85.08441162 C163.70833261 88.07622254 163.70607127 91.06776536 163.69604492 94.05957031 C163.68450756 97.87118758 163.70487745 101.68188485 163.73396206 105.4933815 C163.75239424 108.45674383 163.75201874 111.41988783 163.74632454 114.38329315 C163.74617249 115.78815765 163.75211963 117.19303806 163.76461601 118.59784698 C163.85169788 129.97784256 162.14962744 138.11996046 154.3125 146.58203125 C147.29666813 152.68102145 139.36424815 154.69479818 130.25 154.375 C128.2435269 154.08314937 126.24005807 153.76330401 124.25 153.375 C123.775625 154.53 123.30125 155.685 122.8125 156.875 C119.63112712 163.22646429 114.07275008 168.31422344 107.625 171.3125 C104.15994885 172.40334944 100.85076215 172.94290854 97.25 173.375 C96.92 173.705 96.59 174.035 96.25 174.375 C96.57322056 176.08757368 96.98194606 177.78402565 97.42163086 179.47045898 C97.70199692 180.55926865 97.98236298 181.64807831 98.27122498 182.7698822 C98.58261917 183.95828201 98.89401337 185.14668182 99.21484375 186.37109375 C99.85645812 188.87426226 100.49772277 191.37752043 101.13867188 193.88085938 C102.15769783 197.83871601 103.18236659 201.79506874 104.21362305 205.74975586 C105.20589577 209.55780852 106.17890233 213.37068336 107.15234375 217.18359375 C107.46171371 218.35377548 107.77108368 219.52395721 108.08982849 220.729599 C110.90783361 231.8337053 111.51333906 240.94203119 106.25 251.375 C101.68095536 258.5012553 95.2843579 262.55065924 87.234375 264.984375 C78.21100435 266.76062906 69.62530551 264.90368695 61.953125 259.8671875 C53.83561053 253.30603859 50.64761052 244.65610934 48.390625 234.72265625 C48.15591492 233.7413121 47.92120483 232.75996796 47.67938232 231.74888611 C46.94025206 228.64792788 46.21950822 225.54306349 45.5 222.4375 C44.7623667 219.30796457 44.02099414 216.17934449 43.277771 213.0511322 C42.81848 211.11228755 42.36314852 209.1724998 41.91217041 207.23170471 C41.70815613 206.35997116 41.50414185 205.48823761 41.29394531 204.59008789 C41.11583313 203.82225479 40.93772095 203.05442169 40.75421143 202.26332092 C40.29953566 200.30629322 40.29953566 200.30629322 39.25 198.375 C38.82702637 200.30363892 38.82702637 200.30363892 38.39550781 202.27124023 C37.33906895 207.07613981 36.27000927 211.8781601 35.19726562 216.67944336 C34.73617601 218.75127914 34.27843652 220.82386363 33.82421875 222.8972168 C33.16782372 225.89057965 32.49911852 228.8809738 31.828125 231.87109375 C31.63003235 232.78708847 31.4319397 233.70308319 31.22784424 234.64683533 C28.85211072 245.10778245 25.11028591 254.70490672 15.9375 260.94921875 C7.87112317 265.57942519 -0.27064184 266.91593618 -9.4765625 264.7265625 C-16.96732023 262.01319205 -23.31647432 257.56448372 -27.125 250.4375 C-33.25339132 236.19239484 -29.13450689 222.59297233 -25.75 208.1328125 C-25.34948202 206.39331666 -24.94975664 204.65363815 -24.55078125 202.91378784 C-23.5062347 198.36728887 -22.45209679 193.8230713 -21.39550781 189.27935791 C-19.9051045 182.8621401 -18.42777422 176.44189794 -16.94921875 170.02194214 C-16.1636578 166.61106584 -15.37436411 163.20108779 -14.58203125 159.79177856 C-14.22133371 158.23374904 -13.86065559 156.67571502 -13.5 155.11767578 C-13.33685303 154.41939163 -13.17370605 153.72110748 -13.00561523 153.00166321 C-12.11452246 149.14246443 -11.35763169 145.28886013 -10.75 141.375 C-12.049375 141.2925 -13.34875 141.21 -14.6875 141.125 C-23.87053761 140.07427626 -32.59027677 135.44760367 -38.4765625 128.26953125 C-45.03102245 118.88987305 -46.89946344 109.92720305 -46.91796875 98.52734375 C-46.92129715 97.79359024 -46.92462555 97.05983673 -46.92805481 96.30384827 C-46.93309041 94.75668966 -46.93546418 93.20952031 -46.93530273 91.66235352 C-46.93747142 89.34306988 -46.9556137 87.02427677 -46.97460938 84.70507812 C-47.11700096 48.01657587 -30.02985093 26.77651164 -5.75 1.375 C-4.10843264 -0.26656736 -2.25784199 0.08684008 0 0 Z "
        fill="#fff" transform="translate(198.75,-0.375)" />
    <path
        d="M0 0 C4.26121598 3.54858942 7.73778622 7.53066737 11 12 C12.1446875 11.505 12.1446875 11.505 13.3125 11 C22.38937352 8.53847498 30.64042887 9.8007131 39 14 C44.26677398 17.39066896 47.30536689 21.39516314 50 27 C50 27.66 50 28.32 50 29 C50.57621094 28.84144531 51.15242187 28.68289063 51.74609375 28.51953125 C59.67652482 26.69154627 66.80745737 28.40904076 74 32 C80.7121791 36.39881347 85.61644578 42.59549135 87.625 50.44140625 C88.0156538 53.10680455 88.09839575 55.62031857 88.0625 58.3125 C88.05347656 59.19550781 88.04445312 60.07851563 88.03515625 60.98828125 C88.01775391 61.98408203 88.01775391 61.98408203 88 63 C89.10021484 63.16048828 89.10021484 63.16048828 90.22265625 63.32421875 C96.13537497 64.76289714 100.40268107 68.79635184 103.9140625 73.640625 C108.68465249 82.09655229 109.6631323 90.47066578 107.26171875 99.8984375 C105.36400787 105.09957101 102.79375624 108.99547952 99 113 C100.14394666 115.29894595 101.30196012 117.58950305 102.47265625 119.875 C102.99730469 120.90625 103.52195313 121.9375 104.0625 123 C104.58972656 124.03125 105.11695313 125.0625 105.66015625 126.125 C109.48673403 134.33596573 109.24179104 144.36979008 106.375 152.875 C103.20893117 161.29078979 96.46913806 167.85366905 90.25 174.12109375 C89.51483154 174.86529068 88.77966309 175.60948761 88.0222168 176.37623596 C86.47178468 177.94109419 84.91859659 179.50322623 83.36279297 181.06274414 C81.02189248 183.41549668 78.70034993 185.78627186 76.37890625 188.15820312 C61.18401862 203.51979281 44.13565476 216.43210837 21.53662109 217.1027832 C20.29348145 217.10366943 19.0503418 217.10455566 17.76953125 217.10546875 C0.90276553 216.70257329 0.90276553 216.70257329 -13.42504883 224.45239258 C-15.743416 227.0442497 -17.91425053 229.67693474 -19.88793945 232.54125977 C-21 234 -21 234 -23 235 C-27.63213493 235.55512815 -30.98172127 235.6364242 -35 233.125 C-37.96240773 229.97744179 -38.55447887 227.55415494 -38.4453125 223.1875 C-37.53460741 218.71386097 -34.14630577 216.10622544 -31 213 C-29.90818501 211.82073049 -28.81993071 210.6381589 -27.734375 209.453125 C-26.53276417 208.17565738 -25.32962415 206.89962652 -24.125 205.625 C-23.56087402 205.00544434 -22.99674805 204.38588867 -22.41552734 203.74755859 C-14.0011177 195.08475309 -1.90971217 196.47818375 9.41992188 195.97094727 C25.32619491 195.23560683 39.54526466 192.30745305 51.52734375 181.1171875 C52.03748016 180.64163422 52.54761658 180.16608093 53.07321167 179.67611694 C58.77795685 174.32720942 64.3648721 168.85632268 69.90380859 163.33642578 C71.65155486 161.59859581 73.40970827 159.87171505 75.16796875 158.14453125 C76.29231792 157.02669634 77.41604032 155.90823055 78.5390625 154.7890625 C79.05981354 154.28065826 79.58056458 153.77225403 80.11709595 153.2484436 C84.31314856 149.02624626 85.84406652 145.96476187 86.3125 140.0625 C86.23059659 136.13858202 85.02764253 133.37940422 83 130 C77.77631875 134.35645531 72.94766804 138.95760225 68.1875 143.8125 C66.87081457 145.15462862 65.5519119 146.49458677 64.23046875 147.83203125 C63.65707764 148.41702393 63.08368652 149.0020166 62.49291992 149.60473633 C59.36798816 152.52525718 56.35518994 152.32861295 52.26171875 152.2890625 C48.91365699 151.86115823 47.23933019 150.44926739 45 148 C43.74502043 144.2350613 43.47935556 141.96991382 44 138 C45.29580688 136.16415405 45.29580688 136.16415405 47.02587891 134.27099609 C47.66358215 133.57182068 48.3012854 132.87264526 48.95831299 132.15228271 C52.27442667 128.65653919 55.6588149 125.23831356 59.0859375 121.8515625 C59.82832672 121.1129599 60.57071594 120.3743573 61.33560181 119.6133728 C63.67963118 117.28144722 66.02690121 114.95282743 68.375 112.625 C71.48982689 109.53670378 74.60136628 106.44514948 77.7109375 103.3515625 C78.42752533 102.64327301 79.14411316 101.93498352 79.88241577 101.20523071 C80.54045197 100.55049774 81.19848816 99.89576477 81.87646484 99.22119141 C82.45713715 98.64575592 83.03780945 98.07032043 83.63607788 97.47744751 C86.62432546 94.24047461 86.14921621 91.25266204 86 87 C85.67 86.01 85.34 85.02 85 84 C79.4989496 82.78976891 76.81972972 83.10816217 72 86 C71.38125 86.4125 70.7625 86.825 70.125 87.25 C66.66072174 88.47268644 63.49879635 87.96270783 60 87 C57.2431645 85.30348585 56.30294267 84.04148918 55.40234375 80.9453125 C54.69144786 76.84558283 54.70161576 74.60870385 56.5625 70.8125 C58.38389659 68.71088855 60.16898577 66.886872 62.1875 65 C64.38135467 62.86739508 65.01817217 61.9476214 66.0625 58.9375 C65.9843675 55.26527249 65.48674204 53.71987411 63 51 C59.78909016 49.48018029 59.78909016 49.48018029 56 50 C52.29498554 52.42390927 49.31971373 55.63600057 46.25390625 58.8046875 C43.06508494 61.88304156 40.89259886 63.40845394 36.375 63.625 C32.20662293 63.34046914 29.9052687 62.086848 27 59 C25.39839588 55.79679176 25.49782929 52.47606476 26 49 C27.31431695 46.98745218 28.64721885 44.98689731 30 43 C30.32268559 39.19231005 30.20643566 36.61930698 29 33 C25.93156859 32.15476079 23.18296859 31.73641041 20 32 C16.80974452 33.81868731 14.50081233 36.3375382 12 39 C10.37761044 40.62760625 8.75259792 42.25260208 7.125 43.875 C6.38507813 44.63554687 5.64515625 45.39609375 4.8828125 46.1796875 C2.14884525 48.82290065 1.16454268 48.98354573 -2.75 49.375 C-6.23710971 49.31148252 -7.2276555 48.86754589 -10.4375 47 C-12.96576654 44.0400782 -14.06585187 42.09210031 -14.32421875 38.1796875 C-13.80344144 34.67855813 -11.93664279 32.0804396 -10.09765625 29.109375 C-8.74763698 26.89717602 -8.74763698 26.89717602 -8.9375 23.625 C-10.19678608 20.51382262 -10.98352833 19.4674727 -14 18 C-17.30585954 17.67684137 -19.2817333 17.54961449 -22.1340332 19.33813477 C-22.82843506 20.01158936 -23.52283691 20.68504395 -24.23828125 21.37890625 C-25.0988916 22.20277832 -25.95950195 23.02665039 -26.84619141 23.87548828 C-27.8978464 24.91660297 -28.94907375 25.95814971 -30 27 C-31.35400843 28.3195114 -32.70871605 29.63830555 -34.06396484 30.95654297 C-37.98374792 34.78381429 -41.87224858 38.64141754 -45.75073242 42.51049805 C-48.18546543 44.93547358 -50.63067925 47.34955372 -53.07617188 49.76367188 C-54.64909591 51.33006829 -56.22138332 52.89710429 -57.79296875 54.46484375 C-58.51292526 55.17245346 -59.23288177 55.88006317 -59.97465515 56.6091156 C-66.35960973 63.02192412 -72.09100583 70.18910135 -75.8125 78.5 C-76.37904297 79.72203125 -76.37904297 79.72203125 -76.95703125 80.96875 C-80.58339363 91.50829011 -80.59399979 102.5443307 -81.02905273 113.5703125 C-81.12095116 115.82361424 -81.22946253 118.07566365 -81.33984375 120.328125 C-81.36183334 121.00949524 -81.38382294 121.69086548 -81.40647888 122.3928833 C-81.84281472 130.86827061 -85.9672994 135.41484522 -91.71484375 141.078125 C-92.36699356 141.73077332 -93.01914337 142.38342163 -93.6910553 143.05584717 C-95.06510021 144.42756063 -96.44281729 145.79560442 -97.82397461 147.16015625 C-99.93587903 149.24839719 -102.03407585 151.34971308 -104.13085938 153.453125 C-105.47056285 154.78725343 -106.81103186 156.12061365 -108.15234375 157.453125 C-108.77850082 158.08019348 -109.4046579 158.70726196 -110.04978943 159.35333252 C-110.64042679 159.93443787 -111.23106415 160.51554321 -111.83959961 161.11425781 C-112.35461533 161.62466614 -112.86963104 162.13507446 -113.4002533 162.66094971 C-116.10258058 164.92290289 -118.38286621 165.91950429 -121.875 166.375 C-125.82171864 165.90139376 -127.90995187 164.44329387 -131 162 C-132.79731312 158.40537377 -132.67673736 154.90811114 -132 151 C-128.89004415 146.06203552 -124.27434619 142.32796234 -119.79296875 138.6796875 C-107.77584742 128.67147103 -107.77584742 128.67147103 -102.29296875 114.484375 C-101.77541077 108.07049568 -101.8091969 101.67543172 -101.96923828 95.24609375 C-102.16663866 74.4156538 -90.65983842 56.87116945 -76.78491211 42.38085938 C-74.95717937 40.52711162 -73.12104903 38.68161249 -71.27734375 36.84375 C-70.28150835 35.84333222 -69.28603828 34.84255065 -68.29090881 33.84143066 C-66.22778041 31.76947795 -64.15923814 29.70313342 -62.08666992 27.640625 C-59.45022931 25.01574727 -56.83012763 22.37519458 -54.21402645 19.73006439 C-52.17145277 17.66904567 -50.11954004 15.61752347 -48.06488228 13.56855774 C-47.0951024 12.59892959 -46.12835244 11.62625983 -45.16493034 10.65031433 C-32.86109117 -1.79106864 -16.92192125 -10.39571954 0 0 Z "
        fill="#fff" transform="translate(132,277)" />
    <path
        d="M0 0 C3.41421647 2.36904816 4.64346607 3.97496494 6 7.875 C6 11.90306262 4.89929459 14.47273862 3 18 C-1.24241156 20.82827437 -5.02303157 20.8876122 -10 20 C-12.8367179 18.29294852 -13.34742379 17.08480892 -15 14 C-16.09244247 9.41174163 -15.34642399 6.64665811 -13.125 2.5 C-9.50104161 -1.2792709 -4.85332233 -1.05992097 0 0 Z "
        fill="#fff" transform="translate(320,0)" />
</svg>